<svg 
 xmlns="http://www.w3.org/2000/svg"
 xmlns:xlink="http://www.w3.org/1999/xlink"
 width="23px" height="32px">
<path fill-rule="evenodd"  stroke-width="1px" stroke="rgb(0, 0, 0)" fill="rgb(0, 0, 0)"
 d="M17.361,15.535 C15.972,16.887 14.123,17.633 12.154,17.633 L12.154,17.639 L7.225,17.639 L7.225,20.933 L15.748,20.933 C15.972,20.933 16.158,21.112 16.158,21.328 C16.158,21.544 15.972,21.722 15.748,21.722 L7.225,21.722 L7.225,28.105 C7.225,28.321 7.039,28.500 6.815,28.500 C6.591,28.500 6.405,28.321 6.405,28.105 L6.405,21.722 L3.910,21.722 C3.686,21.722 3.500,21.544 3.500,21.328 C3.500,21.112 3.686,20.933 3.910,20.933 L6.405,20.933 L6.405,17.639 L3.910,17.639 C3.686,17.639 3.500,17.460 3.500,17.244 C3.500,17.029 3.686,16.850 3.910,16.850 L6.405,16.850 L6.405,3.894 C6.405,3.679 6.591,3.500 6.815,3.500 L12.148,3.500 C12.154,3.500 12.154,3.500 12.159,3.500 C14.134,3.542 15.977,4.290 17.356,5.610 C18.740,6.930 19.500,8.683 19.500,10.545 C19.500,12.419 18.740,14.193 17.361,15.535 ZM12.148,4.284 L7.231,4.284 L7.225,4.284 L7.225,16.839 L12.148,16.839 C15.753,16.839 18.680,14.014 18.680,10.541 C18.680,7.109 15.813,4.363 12.148,4.284 Z"/>
</svg>