<svg 
 xmlns="http://www.w3.org/2000/svg"
 xmlns:xlink="http://www.w3.org/1999/xlink"
 width="22px" height="24px">
<path fill-rule="evenodd"  fill="rgb(255, 255, 255)"
 d="M0.550,20.181 L4.400,20.181 L4.400,23.454 C4.400,23.614 4.452,23.744 4.555,23.846 C4.658,23.948 4.790,24.000 4.951,24.000 L7.821,24.000 C7.970,24.000 8.099,23.948 8.207,23.846 C8.316,23.744 8.371,23.614 8.371,23.454 L8.371,20.181 L17.050,20.181 C17.210,20.181 17.342,20.131 17.446,20.027 C17.549,19.925 17.600,19.795 17.600,19.636 L17.600,17.454 C17.600,17.296 17.549,17.165 17.446,17.063 C17.343,16.959 17.210,16.909 17.050,16.909 L8.370,16.909 L8.370,14.897 L14.214,14.897 C16.506,14.897 18.376,14.205 19.826,12.817 C21.275,11.433 22.000,9.642 22.000,7.449 C22.000,5.256 21.275,3.466 19.826,2.079 C18.376,0.694 16.506,0.000 14.214,0.000 L4.950,0.000 C4.790,0.000 4.658,0.051 4.555,0.153 C4.452,0.256 4.400,0.387 4.400,0.545 L4.400,11.267 L0.550,11.267 C0.390,11.267 0.258,11.321 0.155,11.429 C0.052,11.536 0.000,11.665 0.000,11.812 L0.000,14.353 C0.000,14.511 0.052,14.642 0.155,14.744 C0.258,14.847 0.389,14.897 0.550,14.897 L4.400,14.897 L4.400,16.909 L0.550,16.909 C0.390,16.909 0.258,16.959 0.155,17.063 C0.052,17.165 0.000,17.295 0.000,17.454 L0.000,19.636 C0.000,19.795 0.052,19.925 0.155,20.027 C0.258,20.131 0.390,20.181 0.550,20.181 ZM8.370,3.631 L13.870,3.631 C15.085,3.631 16.064,3.983 16.809,4.688 C17.554,5.392 17.926,6.313 17.926,7.450 C17.926,8.585 17.554,9.507 16.809,10.210 C16.064,10.915 15.085,11.267 13.870,11.267 L8.370,11.267 L8.370,3.631 Z"/>
</svg>